<mxfile host="app.diagrams.net" modified="2021-08-26T23:58:23.166Z" agent="5.0 (X11; Linux x86_64) AppleWebKit/537.36 (KHTML, like Gecko) Chrome/93.0.4549.3 Safari/537.36" etag="JDvHm-cxSzC_KsaIBRNp" version="14.9.8" type="github">
  <diagram id="I4MPYZuKWGXdrDoHl7-Y" name="Page-1">
    <mxGraphModel dx="3122" dy="1874" grid="1" gridSize="10" guides="1" tooltips="1" connect="1" arrows="1" fold="1" page="1" pageScale="1" pageWidth="850" pageHeight="1100" math="0" shadow="0">
      <root>
        <mxCell id="0" />
        <mxCell id="1" parent="0" />
        <mxCell id="C1p4UqmkGTLzhGbceTVw-10" style="edgeStyle=orthogonalEdgeStyle;rounded=0;orthogonalLoop=1;jettySize=auto;html=1;exitX=0.5;exitY=1;exitDx=0;exitDy=0;fontColor=#33001A;" parent="1" source="C1p4UqmkGTLzhGbceTVw-1" edge="1">
          <mxGeometry relative="1" as="geometry">
            <mxPoint x="310" y="570" as="targetPoint" />
          </mxGeometry>
        </mxCell>
        <mxCell id="C1p4UqmkGTLzhGbceTVw-28" value="to the shed" style="edgeStyle=orthogonalEdgeStyle;rounded=0;orthogonalLoop=1;jettySize=auto;html=1;fontColor=#33001A;entryX=1;entryY=0.5;entryDx=0;entryDy=0;" parent="1" target="C1p4UqmkGTLzhGbceTVw-29" edge="1">
          <mxGeometry relative="1" as="geometry">
            <mxPoint x="450" y="420" as="targetPoint" />
            <mxPoint x="240" y="420" as="sourcePoint" />
          </mxGeometry>
        </mxCell>
        <mxCell id="C1p4UqmkGTLzhGbceTVw-30" value="to the garden" style="edgeStyle=orthogonalEdgeStyle;rounded=0;orthogonalLoop=1;jettySize=auto;html=1;exitX=1;exitY=0.25;exitDx=0;exitDy=0;fontColor=#33001A;" parent="1" source="C1p4UqmkGTLzhGbceTVw-1" target="C1p4UqmkGTLzhGbceTVw-31" edge="1">
          <mxGeometry relative="1" as="geometry">
            <mxPoint x="460" y="150" as="targetPoint" />
          </mxGeometry>
        </mxCell>
        <mxCell id="C1p4UqmkGTLzhGbceTVw-1" value="&lt;span style=&quot;font-family: &amp;quot;cerebri sans&amp;quot;; font-size: 14px; font-style: normal; font-weight: 400; letter-spacing: normal; text-align: center; text-indent: 0px; text-transform: none; word-spacing: 0px; display: inline; float: none;&quot;&gt;Your uncle has been missing for thirty years, and has now been declared dead. You have inherited his house. You&#39;re standing in front of the house, which has been maintained by his lawyers over the years. The door is a calm light grey. To the left, you see a path to the back of the house. To the right, you see a smaller building, possibly a shed.&lt;/span&gt;" style="rounded=0;whiteSpace=wrap;html=1;fillColor=#647687;fontColor=#ffffff;strokeColor=#314354;" parent="1" vertex="1">
          <mxGeometry x="250" y="180" width="120" height="320" as="geometry" />
        </mxCell>
        <mxCell id="C1p4UqmkGTLzhGbceTVw-8" value="to the house" style="edgeStyle=orthogonalEdgeStyle;rounded=0;orthogonalLoop=1;jettySize=auto;html=1;entryX=0.5;entryY=1;entryDx=0;entryDy=0;fontColor=#33001A;" parent="1" source="C1p4UqmkGTLzhGbceTVw-7" target="C1p4UqmkGTLzhGbceTVw-1" edge="1">
          <mxGeometry relative="1" as="geometry" />
        </mxCell>
        <mxCell id="C1p4UqmkGTLzhGbceTVw-12" value="" style="edgeStyle=orthogonalEdgeStyle;rounded=0;orthogonalLoop=1;jettySize=auto;html=1;fontColor=#33001A;" parent="1" source="C1p4UqmkGTLzhGbceTVw-7" target="C1p4UqmkGTLzhGbceTVw-11" edge="1">
          <mxGeometry relative="1" as="geometry" />
        </mxCell>
        <mxCell id="C1p4UqmkGTLzhGbceTVw-18" value="open the door" style="edgeStyle=orthogonalEdgeStyle;rounded=0;orthogonalLoop=1;jettySize=auto;html=1;fontColor=#33001A;" parent="1" source="C1p4UqmkGTLzhGbceTVw-7" target="C1p4UqmkGTLzhGbceTVw-17" edge="1">
          <mxGeometry relative="1" as="geometry" />
        </mxCell>
        <mxCell id="C1p4UqmkGTLzhGbceTVw-7" value="&lt;span style=&quot;color: rgb(40 , 64 , 89) ; font-family: &amp;#34;cerebri sans&amp;#34; ; font-size: 14px ; font-style: normal ; font-weight: 400 ; letter-spacing: normal ; text-align: center ; text-indent: 0px ; text-transform: none ; word-spacing: 0px ; background-color: rgb(255 , 255 , 255) ; display: inline ; float: none&quot;&gt;frontDoor()&lt;br&gt;The door is a light grey, with bits of paint flecking off. There&#39;s dark blue paint beneath. There&#39;s a mat in front of the door that says &quot;Welcome.&quot; There is a&amp;nbsp; metal mailbox under the doorbell.&lt;/span&gt;" style="rounded=1;whiteSpace=wrap;html=1;fontColor=#33001A;strokeColor=#000000;gradientColor=#ffffff;direction=south;" parent="1" vertex="1">
          <mxGeometry x="175" y="570" width="270" height="120" as="geometry" />
        </mxCell>
        <mxCell id="C1p4UqmkGTLzhGbceTVw-13" value="yes" style="edgeStyle=orthogonalEdgeStyle;rounded=0;orthogonalLoop=1;jettySize=auto;html=1;exitX=0;exitY=0.5;exitDx=0;exitDy=0;fontColor=#33001A;entryX=1;entryY=0.5;entryDx=0;entryDy=0;" parent="1" source="C1p4UqmkGTLzhGbceTVw-11" target="C1p4UqmkGTLzhGbceTVw-14" edge="1">
          <mxGeometry relative="1" as="geometry">
            <mxPoint x="190" y="830" as="targetPoint" />
            <Array as="points">
              <mxPoint x="180" y="830" />
            </Array>
          </mxGeometry>
        </mxCell>
        <mxCell id="C1p4UqmkGTLzhGbceTVw-16" value="No" style="edgeStyle=orthogonalEdgeStyle;rounded=0;orthogonalLoop=1;jettySize=auto;html=1;fontColor=#33001A;" parent="1" source="C1p4UqmkGTLzhGbceTVw-11" target="C1p4UqmkGTLzhGbceTVw-15" edge="1">
          <mxGeometry relative="1" as="geometry" />
        </mxCell>
        <mxCell id="C1p4UqmkGTLzhGbceTVw-11" value="Key:mailbox?" style="rhombus;whiteSpace=wrap;html=1;rounded=1;fillColor=#f8cecc;strokeColor=#b85450;" parent="1" vertex="1">
          <mxGeometry x="260" y="790" width="90" height="80" as="geometry" />
        </mxCell>
        <mxCell id="C1p4UqmkGTLzhGbceTVw-14" value="&lt;span style=&quot;color: rgb(40 , 64 , 89) ; font-family: &amp;#34;cerebri sans&amp;#34; ; font-size: 14px ; font-style: normal ; font-weight: 400 ; letter-spacing: normal ; text-align: center ; text-indent: 0px ; text-transform: none ; word-spacing: 0px ; display: inline ; float: none&quot;&gt;You open the mailbox. Inside is a keyring with three keys. One has a grey cover, one has a red cover, and one has a blue cover.&lt;br&gt;[greyDoor] [redDoor] [blueDoor]&lt;br&gt;&lt;/span&gt;" style="ellipse;whiteSpace=wrap;html=1;strokeColor=#82b366;fillColor=#d5e8d4;" parent="1" vertex="1">
          <mxGeometry x="-70" y="765" width="260" height="130" as="geometry" />
        </mxCell>
        <mxCell id="C1p4UqmkGTLzhGbceTVw-15" value="&lt;meta charset=&quot;utf-8&quot;&gt;&lt;span style=&quot;color: rgb(40, 64, 89); font-family: &amp;quot;cerebri sans&amp;quot;; font-size: 14px; font-style: normal; font-weight: 400; letter-spacing: normal; text-align: center; text-indent: 0px; text-transform: none; word-spacing: 0px; background-color: rgb(255, 255, 255); display: inline; float: none;&quot;&gt;The mailbox is locked.&lt;/span&gt;" style="whiteSpace=wrap;html=1;rounded=1;" parent="1" vertex="1">
          <mxGeometry x="245" y="960" width="120" height="60" as="geometry" />
        </mxCell>
        <mxCell id="C1p4UqmkGTLzhGbceTVw-20" value="Yes" style="edgeStyle=orthogonalEdgeStyle;rounded=0;orthogonalLoop=1;jettySize=auto;html=1;fontColor=#33001A;" parent="1" source="C1p4UqmkGTLzhGbceTVw-17" target="C1p4UqmkGTLzhGbceTVw-19" edge="1">
          <mxGeometry relative="1" as="geometry" />
        </mxCell>
        <mxCell id="C1p4UqmkGTLzhGbceTVw-21" value="No" style="edgeStyle=orthogonalEdgeStyle;rounded=0;orthogonalLoop=1;jettySize=auto;html=1;exitX=1;exitY=0.5;exitDx=0;exitDy=0;fontColor=#33001A;entryX=0;entryY=0.5;entryDx=0;entryDy=0;" parent="1" source="C1p4UqmkGTLzhGbceTVw-17" target="C1p4UqmkGTLzhGbceTVw-22" edge="1">
          <mxGeometry relative="1" as="geometry">
            <mxPoint x="710" y="660" as="targetPoint" />
          </mxGeometry>
        </mxCell>
        <mxCell id="C1p4UqmkGTLzhGbceTVw-17" value="Key:greyDoor?" style="rhombus;whiteSpace=wrap;html=1;rounded=1;fillColor=#f8cecc;strokeColor=#b85450;" parent="1" vertex="1">
          <mxGeometry x="570" y="590" width="80" height="80" as="geometry" />
        </mxCell>
        <mxCell id="C1p4UqmkGTLzhGbceTVw-26" value="go through the door" style="edgeStyle=orthogonalEdgeStyle;rounded=0;orthogonalLoop=1;jettySize=auto;html=1;fontColor=#33001A;" parent="1" source="C1p4UqmkGTLzhGbceTVw-19" target="C1p4UqmkGTLzhGbceTVw-25" edge="1">
          <mxGeometry relative="1" as="geometry" />
        </mxCell>
        <mxCell id="C1p4UqmkGTLzhGbceTVw-19" value="&lt;span style=&quot;color: rgb(40 , 64 , 89) ; font-family: &amp;#34;cerebri sans&amp;#34; ; font-size: 14px ; font-style: normal ; font-weight: 400 ; letter-spacing: normal ; text-align: center ; text-indent: 0px ; text-transform: none ; word-spacing: 0px ; background-color: rgb(255 , 255 , 255) ; display: inline ; float: none&quot;&gt;You try each key on the ring. The one with the grey cover fits the lock, and you unlock the door.&lt;/span&gt;" style="whiteSpace=wrap;html=1;rounded=1;" parent="1" vertex="1">
          <mxGeometry x="710" y="530" width="120" height="100" as="geometry" />
        </mxCell>
        <mxCell id="C1p4UqmkGTLzhGbceTVw-22" value="&lt;meta charset=&quot;utf-8&quot;&gt;&lt;span style=&quot;color: rgb(40, 64, 89); font-family: &amp;quot;cerebri sans&amp;quot;; font-size: 14px; font-style: normal; font-weight: 400; letter-spacing: normal; text-align: center; text-indent: 0px; text-transform: none; word-spacing: 0px; background-color: rgb(255, 255, 255); display: inline; float: none;&quot;&gt;The door is locked.&lt;/span&gt;" style="rounded=1;whiteSpace=wrap;html=1;fontColor=#33001A;strokeColor=#000000;gradientColor=#ffffff;" parent="1" vertex="1">
          <mxGeometry x="710" y="670" width="120" height="60" as="geometry" />
        </mxCell>
        <mxCell id="C1p4UqmkGTLzhGbceTVw-58" value="go to the dining room" style="edgeStyle=orthogonalEdgeStyle;rounded=0;orthogonalLoop=1;jettySize=auto;html=1;fontColor=#33001A;" parent="1" source="C1p4UqmkGTLzhGbceTVw-25" target="C1p4UqmkGTLzhGbceTVw-57" edge="1">
          <mxGeometry relative="1" as="geometry" />
        </mxCell>
        <mxCell id="C1p4UqmkGTLzhGbceTVw-60" value="go to the living room" style="edgeStyle=orthogonalEdgeStyle;rounded=0;orthogonalLoop=1;jettySize=auto;html=1;fontColor=#33001A;" parent="1" source="C1p4UqmkGTLzhGbceTVw-25" target="C1p4UqmkGTLzhGbceTVw-59" edge="1">
          <mxGeometry relative="1" as="geometry" />
        </mxCell>
        <mxCell id="C1p4UqmkGTLzhGbceTVw-62" value="go to the hallway" style="edgeStyle=orthogonalEdgeStyle;rounded=0;orthogonalLoop=1;jettySize=auto;html=1;fontColor=#33001A;" parent="1" source="C1p4UqmkGTLzhGbceTVw-25" target="C1p4UqmkGTLzhGbceTVw-61" edge="1">
          <mxGeometry relative="1" as="geometry" />
        </mxCell>
        <mxCell id="C1p4UqmkGTLzhGbceTVw-64" value="open the door" style="edgeStyle=orthogonalEdgeStyle;rounded=0;orthogonalLoop=1;jettySize=auto;html=1;exitX=1;exitY=1;exitDx=0;exitDy=0;entryX=0;entryY=0.5;entryDx=0;entryDy=0;fontColor=#33001A;" parent="1" source="C1p4UqmkGTLzhGbceTVw-25" target="C1p4UqmkGTLzhGbceTVw-63" edge="1">
          <mxGeometry relative="1" as="geometry" />
        </mxCell>
        <mxCell id="C1p4UqmkGTLzhGbceTVw-25" value="foyer()&lt;br&gt;You&#39;re in a foyer. There is an open doorway to the left that you glimpse a table through. It must be the dining room. To the right is another open doorway, leading to what you know is the living room. The open doorway in front of you leads to the hallway. There is a closed door beside the hall doorway." style="whiteSpace=wrap;html=1;rounded=1;" parent="1" vertex="1">
          <mxGeometry x="990" y="495" width="180" height="170" as="geometry" />
        </mxCell>
        <mxCell id="ivbzf-HTEXW1V83epDQX-16" value="open the door" style="edgeStyle=orthogonalEdgeStyle;rounded=0;orthogonalLoop=1;jettySize=auto;html=1;entryX=1;entryY=0.5;entryDx=0;entryDy=0;" edge="1" parent="1" source="C1p4UqmkGTLzhGbceTVw-29" target="ivbzf-HTEXW1V83epDQX-17">
          <mxGeometry relative="1" as="geometry">
            <mxPoint x="-170" y="425" as="targetPoint" />
          </mxGeometry>
        </mxCell>
        <mxCell id="ivbzf-HTEXW1V83epDQX-35" value="" style="edgeStyle=orthogonalEdgeStyle;rounded=0;orthogonalLoop=1;jettySize=auto;html=1;" edge="1" parent="1" source="C1p4UqmkGTLzhGbceTVw-29" target="ivbzf-HTEXW1V83epDQX-34">
          <mxGeometry relative="1" as="geometry" />
        </mxCell>
        <mxCell id="C1p4UqmkGTLzhGbceTVw-29" value="shedDoor()&lt;br&gt;The shed is weathered, but sturdy. The door is painted a cheerful red. There are stumps on either side of the door, like there may have been shrubs here at some point.&amp;nbsp;" style="rounded=1;whiteSpace=wrap;html=1;fontColor=#33001A;strokeColor=#000000;gradientColor=#ffffff;" parent="1" vertex="1">
          <mxGeometry x="-60" y="365" width="150" height="120" as="geometry" />
        </mxCell>
        <mxCell id="C1p4UqmkGTLzhGbceTVw-34" value="to the garden" style="edgeStyle=orthogonalEdgeStyle;rounded=0;orthogonalLoop=1;jettySize=auto;html=1;fontColor=#33001A;" parent="1" source="C1p4UqmkGTLzhGbceTVw-31" target="C1p4UqmkGTLzhGbceTVw-33" edge="1">
          <mxGeometry relative="1" as="geometry" />
        </mxCell>
        <mxCell id="C1p4UqmkGTLzhGbceTVw-36" value="to the patio" style="edgeStyle=orthogonalEdgeStyle;rounded=0;orthogonalLoop=1;jettySize=auto;html=1;fontColor=#33001A;" parent="1" source="C1p4UqmkGTLzhGbceTVw-31" target="C1p4UqmkGTLzhGbceTVw-35" edge="1">
          <mxGeometry relative="1" as="geometry" />
        </mxCell>
        <mxCell id="C1p4UqmkGTLzhGbceTVw-31" value="&lt;meta charset=&quot;utf-8&quot;&gt;&lt;span style=&quot;color: rgb(40, 64, 89); font-family: &amp;quot;cerebri sans&amp;quot;; font-size: 14px; font-style: normal; font-weight: 400; letter-spacing: normal; text-align: center; text-indent: 0px; text-transform: none; word-spacing: 0px; background-color: rgb(255, 255, 255); display: inline; float: none;&quot;&gt;You see a gazebo on the left and a patio to the right.&lt;/span&gt;" style="rounded=1;whiteSpace=wrap;html=1;fontColor=#33001A;strokeColor=#000000;gradientColor=#ffffff;" parent="1" vertex="1">
          <mxGeometry x="390" y="50" width="120" height="80" as="geometry" />
        </mxCell>
        <mxCell id="C1p4UqmkGTLzhGbceTVw-33" value="&lt;meta charset=&quot;utf-8&quot;&gt;&lt;span style=&quot;color: rgb(40, 64, 89); font-family: &amp;quot;cerebri sans&amp;quot;; font-size: 14px; font-style: normal; font-weight: 400; letter-spacing: normal; text-align: center; text-indent: 0px; text-transform: none; word-spacing: 0px; background-color: rgb(255, 255, 255); display: inline; float: none;&quot;&gt;You enter the gazebo. It&#39;s nice, if run down. There are flower boxes along the outside, but they&#39;ve been empty for years.&amp;nbsp;&lt;/span&gt;" style="whiteSpace=wrap;html=1;rounded=1;fontColor=#33001A;gradientColor=#ffffff;direction=west;" parent="1" vertex="1">
          <mxGeometry x="360" y="-180" width="120" height="150" as="geometry" />
        </mxCell>
        <mxCell id="C1p4UqmkGTLzhGbceTVw-40" value="" style="edgeStyle=orthogonalEdgeStyle;rounded=0;orthogonalLoop=1;jettySize=auto;html=1;fontColor=#33001A;" parent="1" source="C1p4UqmkGTLzhGbceTVw-35" target="C1p4UqmkGTLzhGbceTVw-39" edge="1">
          <mxGeometry relative="1" as="geometry" />
        </mxCell>
        <mxCell id="C1p4UqmkGTLzhGbceTVw-45" value="check the table" style="edgeStyle=orthogonalEdgeStyle;rounded=0;orthogonalLoop=1;jettySize=auto;html=1;fontColor=#33001A;entryX=0;entryY=0.5;entryDx=0;entryDy=0;" parent="1" target="C1p4UqmkGTLzhGbceTVw-44" edge="1">
          <mxGeometry relative="1" as="geometry">
            <mxPoint x="760" y="30" as="sourcePoint" />
            <Array as="points">
              <mxPoint x="820" y="30" />
              <mxPoint x="820" y="-100" />
              <mxPoint x="870" y="-100" />
            </Array>
          </mxGeometry>
        </mxCell>
        <mxCell id="C1p4UqmkGTLzhGbceTVw-47" value="check the fire pit" style="edgeStyle=orthogonalEdgeStyle;rounded=0;orthogonalLoop=1;jettySize=auto;html=1;exitX=1;exitY=0.5;exitDx=0;exitDy=0;fontColor=#33001A;entryX=0;entryY=0.5;entryDx=0;entryDy=0;" parent="1" source="C1p4UqmkGTLzhGbceTVw-35" target="C1p4UqmkGTLzhGbceTVw-46" edge="1">
          <mxGeometry relative="1" as="geometry">
            <mxPoint x="840" y="110" as="targetPoint" />
          </mxGeometry>
        </mxCell>
        <mxCell id="C1p4UqmkGTLzhGbceTVw-52" value="check the door" style="edgeStyle=orthogonalEdgeStyle;rounded=0;orthogonalLoop=1;jettySize=auto;html=1;fontColor=#33001A;" parent="1" source="C1p4UqmkGTLzhGbceTVw-35" target="C1p4UqmkGTLzhGbceTVw-51" edge="1">
          <mxGeometry relative="1" as="geometry" />
        </mxCell>
        <mxCell id="ivbzf-HTEXW1V83epDQX-39" style="edgeStyle=orthogonalEdgeStyle;rounded=0;orthogonalLoop=1;jettySize=auto;html=1;exitX=0;exitY=0;exitDx=0;exitDy=0;" edge="1" parent="1" source="C1p4UqmkGTLzhGbceTVw-35" target="ivbzf-HTEXW1V83epDQX-38">
          <mxGeometry relative="1" as="geometry" />
        </mxCell>
        <mxCell id="C1p4UqmkGTLzhGbceTVw-35" value="&lt;span style=&quot;color: rgb(40 , 64 , 89) ; font-family: &amp;#34;cerebri sans&amp;#34; ; font-size: 14px ; font-style: normal ; font-weight: 400 ; letter-spacing: normal ; text-align: center ; text-indent: 0px ; text-transform: none ; word-spacing: 0px ; background-color: rgb(255 , 255 , 255) ; display: inline ; float: none&quot;&gt;patio()&lt;br&gt;The patio is stone, though there are weeds pushing through the cracks. There&#39;s an old fountain to one side, maybe it was once lovely, but now it&#39;s covered in grime and moss. The opposite side of the patio has a covered fire pit, the stones have held up fairly well, but a few have fallen down. In the middle of the patio is a rusty set of chairs and a small cafe table, overlooking the overgrown back yard. There is a door into the house on the patio as well.&amp;nbsp;&lt;/span&gt;" style="rounded=1;whiteSpace=wrap;html=1;fontColor=#33001A;gradientColor=#ffffff;" parent="1" vertex="1">
          <mxGeometry x="590" y="-120" width="170" height="300" as="geometry" />
        </mxCell>
        <mxCell id="C1p4UqmkGTLzhGbceTVw-41" value="check the fountain" style="edgeStyle=orthogonalEdgeStyle;rounded=0;orthogonalLoop=1;jettySize=auto;html=1;fontColor=#33001A;" parent="1" source="C1p4UqmkGTLzhGbceTVw-39" target="C1p4UqmkGTLzhGbceTVw-35" edge="1">
          <mxGeometry relative="1" as="geometry" />
        </mxCell>
        <mxCell id="C1p4UqmkGTLzhGbceTVw-43" value="pick up the pail" style="edgeStyle=orthogonalEdgeStyle;rounded=0;orthogonalLoop=1;jettySize=auto;html=1;fontColor=#33001A;" parent="1" source="C1p4UqmkGTLzhGbceTVw-39" target="C1p4UqmkGTLzhGbceTVw-42" edge="1">
          <mxGeometry relative="1" as="geometry" />
        </mxCell>
        <mxCell id="C1p4UqmkGTLzhGbceTVw-39" value="&lt;span style=&quot;color: rgb(40 , 64 , 89) ; font-family: &amp;#34;cerebri sans&amp;#34; ; font-size: 14px ; font-style: normal ; font-weight: 400 ; letter-spacing: normal ; text-align: center ; text-indent: 0px ; text-transform: none ; word-spacing: 0px ; background-color: rgb(255 , 255 , 255) ; display: inline ; float: none&quot;&gt;fountain()&lt;br&gt;Closer up, the fountain isn&#39;t quite as grimy as you thought, but it&#39;s still got muck built up at the bottom. Most of the discoloration is just some mice soft moss covering the stone. An old pail is on its side at the bottom.&lt;/span&gt;" style="whiteSpace=wrap;html=1;rounded=1;fontColor=#33001A;gradientColor=#ffffff;" parent="1" vertex="1">
          <mxGeometry x="602.5" y="-350" width="145" height="180" as="geometry" />
        </mxCell>
        <mxCell id="C1p4UqmkGTLzhGbceTVw-42" value="&lt;span style=&quot;color: rgb(40 , 61 , 89) ; font-family: &amp;#34;cerebri sans&amp;#34; ; font-size: 14px&quot;&gt;You now have the pail. It&#39;s still pretty gross.... [pail]&lt;/span&gt;" style="ellipse;whiteSpace=wrap;html=1;rounded=1;fillColor=#d5e8d4;strokeColor=#82b366;" parent="1" vertex="1">
          <mxGeometry x="558.75" y="-510" width="232.5" height="60" as="geometry" />
        </mxCell>
        <mxCell id="C1p4UqmkGTLzhGbceTVw-50" value="pick up the rusty bar" style="edgeStyle=orthogonalEdgeStyle;rounded=0;orthogonalLoop=1;jettySize=auto;html=1;fontColor=#33001A;" parent="1" source="C1p4UqmkGTLzhGbceTVw-44" target="C1p4UqmkGTLzhGbceTVw-49" edge="1">
          <mxGeometry relative="1" as="geometry" />
        </mxCell>
        <mxCell id="C1p4UqmkGTLzhGbceTVw-44" value="&lt;span style=&quot;color: rgb(40 , 64 , 89) ; font-family: &amp;#34;cerebri sans&amp;#34; ; font-size: 14px ; font-style: normal ; font-weight: 400 ; letter-spacing: normal ; text-align: center ; text-indent: 0px ; text-transform: none ; word-spacing: 0px ; background-color: rgb(255 , 255 , 255) ; display: inline ; float: none&quot;&gt;table()&lt;br&gt;The table is pretty rusty, and so are the chairs. A rusty bar from one chair lies under the table.&lt;/span&gt;" style="whiteSpace=wrap;html=1;rounded=1;fontColor=#33001A;gradientColor=#ffffff;" parent="1" vertex="1">
          <mxGeometry x="870" y="-160" width="120" height="110" as="geometry" />
        </mxCell>
        <mxCell id="C1p4UqmkGTLzhGbceTVw-46" value="&lt;span style=&quot;color: rgb(40 , 64 , 89) ; font-family: &amp;#34;cerebri sans&amp;#34; ; font-size: 14px ; font-style: normal ; font-weight: 400 ; letter-spacing: normal ; text-align: center ; text-indent: 0px ; text-transform: none ; word-spacing: 0px ; background-color: rgb(255 , 255 , 255) ; display: inline ; float: none&quot;&gt;firepit()&lt;br&gt;The fire pit is a half-sphere of stone, with some of the bricks missing from the structure. A few of these are in the center of the pit.&amp;nbsp;&lt;/span&gt;" style="rounded=1;whiteSpace=wrap;html=1;fontColor=#33001A;strokeColor=#000000;gradientColor=#ffffff;" parent="1" vertex="1">
          <mxGeometry x="880" y="50" width="120" height="150" as="geometry" />
        </mxCell>
        <mxCell id="C1p4UqmkGTLzhGbceTVw-49" value="&lt;span style=&quot;color: rgb(40 , 61 , 89) ; font-family: &amp;#34;cerebri sans&amp;#34; ; font-size: 14px ; font-style: normal ; font-weight: 400 ; letter-spacing: normal ; text-align: center ; text-indent: 0px ; text-transform: none ; word-spacing: 0px ; display: inline ; float: none&quot;&gt;You now have a rusty bar. You try to remember when you had your last tetanus shot... [rustyBar]&lt;/span&gt;" style="ellipse;whiteSpace=wrap;html=1;rounded=1;fillColor=#d5e8d4;strokeColor=#82b366;" parent="1" vertex="1">
          <mxGeometry x="830" y="-350" width="185" height="95" as="geometry" />
        </mxCell>
        <mxCell id="C1p4UqmkGTLzhGbceTVw-54" value="check under the mat" style="edgeStyle=orthogonalEdgeStyle;rounded=0;orthogonalLoop=1;jettySize=auto;html=1;fontColor=#33001A;" parent="1" source="C1p4UqmkGTLzhGbceTVw-51" target="C1p4UqmkGTLzhGbceTVw-53" edge="1">
          <mxGeometry relative="1" as="geometry" />
        </mxCell>
        <mxCell id="C1p4UqmkGTLzhGbceTVw-51" value="&lt;meta charset=&quot;utf-8&quot;&gt;&lt;span style=&quot;color: rgb(40, 64, 89); font-family: &amp;quot;cerebri sans&amp;quot;; font-size: 14px; font-style: normal; font-weight: 400; letter-spacing: normal; text-align: center; text-indent: 0px; text-transform: none; word-spacing: 0px; background-color: rgb(255, 255, 255); display: inline; float: none;&quot;&gt;The door is faded blue, and there is an old mat that says &quot;Oh, it&#39;s you...&quot;&lt;/span&gt;" style="whiteSpace=wrap;html=1;rounded=1;fontColor=#33001A;gradientColor=#ffffff;" parent="1" vertex="1">
          <mxGeometry x="615" y="290" width="120" height="90" as="geometry" />
        </mxCell>
        <mxCell id="C1p4UqmkGTLzhGbceTVw-53" value="&lt;span style=&quot;color: rgb(40 , 61 , 89) ; font-family: &amp;#34;cerebri sans&amp;#34; ; font-size: 14px ; font-style: normal ; font-weight: 400 ; letter-spacing: normal ; text-align: center ; text-indent: 0px ; text-transform: none ; word-spacing: 0px ; display: inline ; float: none&quot;&gt;You now have a key! [mailbox]&lt;/span&gt;" style="ellipse;whiteSpace=wrap;html=1;rounded=1;fillColor=#d5e8d4;strokeColor=#82b366;" parent="1" vertex="1">
          <mxGeometry x="880" y="305" width="120" height="60" as="geometry" />
        </mxCell>
        <mxCell id="C1p4UqmkGTLzhGbceTVw-70" value="go through the door" style="edgeStyle=orthogonalEdgeStyle;rounded=0;orthogonalLoop=1;jettySize=auto;html=1;fontColor=#33001A;" parent="1" source="C1p4UqmkGTLzhGbceTVw-57" target="C1p4UqmkGTLzhGbceTVw-69" edge="1">
          <mxGeometry relative="1" as="geometry" />
        </mxCell>
        <mxCell id="C1p4UqmkGTLzhGbceTVw-57" value="The dining room has a table with six chairs, and a china hutch one wall. Art hangs on the wall. You recognize your uncle&#39;s style, though not the subjects. Most are nature scenes you don&#39;t recognize, but one is of a woman.. She is lovely in a way that makes your eyes hurt. A swinging door is on the far wall." style="rounded=1;whiteSpace=wrap;html=1;" parent="1" vertex="1">
          <mxGeometry x="1010" y="140" width="160" height="210" as="geometry" />
        </mxCell>
        <mxCell id="ivbzf-HTEXW1V83epDQX-14" value="check the knick-knacks and trinkets" style="edgeStyle=orthogonalEdgeStyle;rounded=0;orthogonalLoop=1;jettySize=auto;html=1;" edge="1" parent="1" source="C1p4UqmkGTLzhGbceTVw-59" target="ivbzf-HTEXW1V83epDQX-13">
          <mxGeometry relative="1" as="geometry" />
        </mxCell>
        <mxCell id="C1p4UqmkGTLzhGbceTVw-59" value="livingRoom()&lt;br&gt;The living room furniture has been covered in dust cloths. Under those, you see rich red fabric, undisturbed by time. There are shelves on the wall,&amp;nbsp; mostly filled with knick-knacks and trinkets. Charcoal sketches hang on the wall.&amp;nbsp;" style="whiteSpace=wrap;html=1;rounded=1;" parent="1" vertex="1">
          <mxGeometry x="1350" y="500" width="200" height="110" as="geometry" />
        </mxCell>
        <mxCell id="C1p4UqmkGTLzhGbceTVw-61" value="hallway()&lt;br&gt;" style="whiteSpace=wrap;html=1;rounded=1;" parent="1" vertex="1">
          <mxGeometry x="1020" y="770" width="120" height="60" as="geometry" />
        </mxCell>
        <mxCell id="C1p4UqmkGTLzhGbceTVw-66" value="rummage through the pockets" style="edgeStyle=orthogonalEdgeStyle;rounded=0;orthogonalLoop=1;jettySize=auto;html=1;fontColor=#33001A;entryX=0.5;entryY=0;entryDx=0;entryDy=0;" parent="1" source="C1p4UqmkGTLzhGbceTVw-63" target="C1p4UqmkGTLzhGbceTVw-67" edge="1">
          <mxGeometry relative="1" as="geometry">
            <mxPoint x="1530" y="750" as="targetPoint" />
          </mxGeometry>
        </mxCell>
        <mxCell id="C1p4UqmkGTLzhGbceTVw-63" value="closet()&lt;br&gt;It&#39;s a closet. The coats smell sligtly musty." style="rounded=1;whiteSpace=wrap;html=1;fontColor=#33001A;strokeColor=#000000;gradientColor=#ffffff;" parent="1" vertex="1">
          <mxGeometry x="1270" y="670" width="120" height="60" as="geometry" />
        </mxCell>
        <mxCell id="C1p4UqmkGTLzhGbceTVw-67" value="You smooth out the paper. It&#39;s a note, with a sketch of a face in profile. She is lovely.&lt;br&gt;[closetSketch]" style="ellipse;whiteSpace=wrap;html=1;rounded=1;fillColor=#d5e8d4;strokeColor=#82b366;" parent="1" vertex="1">
          <mxGeometry x="1420" y="755" width="190" height="90" as="geometry" />
        </mxCell>
        <mxCell id="ivbzf-HTEXW1V83epDQX-2" value="check the fridge" style="edgeStyle=orthogonalEdgeStyle;rounded=0;orthogonalLoop=1;jettySize=auto;html=1;" edge="1" parent="1" source="C1p4UqmkGTLzhGbceTVw-69" target="ivbzf-HTEXW1V83epDQX-1">
          <mxGeometry relative="1" as="geometry" />
        </mxCell>
        <mxCell id="ivbzf-HTEXW1V83epDQX-10" value="check the cabinets" style="edgeStyle=orthogonalEdgeStyle;rounded=0;orthogonalLoop=1;jettySize=auto;html=1;" edge="1" parent="1" source="C1p4UqmkGTLzhGbceTVw-69" target="ivbzf-HTEXW1V83epDQX-9">
          <mxGeometry relative="1" as="geometry" />
        </mxCell>
        <mxCell id="ivbzf-HTEXW1V83epDQX-12" value="go to the hallway" style="edgeStyle=orthogonalEdgeStyle;rounded=0;orthogonalLoop=1;jettySize=auto;html=1;" edge="1" parent="1" source="C1p4UqmkGTLzhGbceTVw-69" target="ivbzf-HTEXW1V83epDQX-11">
          <mxGeometry relative="1" as="geometry" />
        </mxCell>
        <mxCell id="C1p4UqmkGTLzhGbceTVw-69" value="The kitchen has been unused for some time. The chrome appliances have been turned back off by the lawyer&#39;s office years ago. The cabinets are dark wood and the floor is tile laminate. The fridge has papers on it, but you can&#39;t tell what they are. A closed door is on the wall opposite the sink. You wonder if the cabinets hold any snacks..." style="whiteSpace=wrap;html=1;rounded=1;direction=west;" parent="1" vertex="1">
          <mxGeometry x="1300" y="116.25" width="155" height="207.5" as="geometry" />
        </mxCell>
        <mxCell id="ivbzf-HTEXW1V83epDQX-4" value="take the photo" style="edgeStyle=orthogonalEdgeStyle;rounded=0;orthogonalLoop=1;jettySize=auto;html=1;" edge="1" parent="1" source="ivbzf-HTEXW1V83epDQX-1" target="ivbzf-HTEXW1V83epDQX-3">
          <mxGeometry relative="1" as="geometry" />
        </mxCell>
        <mxCell id="ivbzf-HTEXW1V83epDQX-6" value="look at your drawing" style="edgeStyle=orthogonalEdgeStyle;rounded=0;orthogonalLoop=1;jettySize=auto;html=1;" edge="1" parent="1" source="ivbzf-HTEXW1V83epDQX-1" target="ivbzf-HTEXW1V83epDQX-5">
          <mxGeometry relative="1" as="geometry" />
        </mxCell>
        <mxCell id="ivbzf-HTEXW1V83epDQX-8" value="look in the fridge" style="edgeStyle=orthogonalEdgeStyle;rounded=0;orthogonalLoop=1;jettySize=auto;html=1;" edge="1" parent="1" source="ivbzf-HTEXW1V83epDQX-1" target="ivbzf-HTEXW1V83epDQX-7">
          <mxGeometry relative="1" as="geometry" />
        </mxCell>
        <mxCell id="ivbzf-HTEXW1V83epDQX-1" value="The fridge has the usual types of papers on it. There are several old takeout menus, a child&#39;s drawing that you recognize as your own work, and a dry-erase board with a photo stuck in the corner." style="rounded=1;whiteSpace=wrap;html=1;" vertex="1" parent="1">
          <mxGeometry x="1317.5" y="-200" width="120" height="200" as="geometry" />
        </mxCell>
        <mxCell id="ivbzf-HTEXW1V83epDQX-3" value="It&#39;s a photo of a woman.. She&#39;s looking at something off camera. You find yourself oddly relieved she&#39;s not looking at you... There&#39;s a note written on it.&amp;nbsp;&lt;br&gt;&quot;Such glamour I have never seen...&quot;&lt;br&gt;[fridgePhoto]" style="ellipse;whiteSpace=wrap;html=1;rounded=1;fillColor=#d5e8d4;strokeColor=#82b366;" vertex="1" parent="1">
          <mxGeometry x="1550" y="-155" width="320" height="155" as="geometry" />
        </mxCell>
        <mxCell id="ivbzf-HTEXW1V83epDQX-5" value="You don&#39;t remember drawing this one, but it&#39;s definitely yours. It has you and your uncle and a treehouse. Where were you drawing?" style="whiteSpace=wrap;html=1;rounded=1;" vertex="1" parent="1">
          <mxGeometry x="1317.5" y="-410" width="132.5" height="120" as="geometry" />
        </mxCell>
        <mxCell id="ivbzf-HTEXW1V83epDQX-7" value="How long has this mustard been waiting here..." style="whiteSpace=wrap;html=1;rounded=1;" vertex="1" parent="1">
          <mxGeometry x="1060" y="-130" width="120" height="60" as="geometry" />
        </mxCell>
        <mxCell id="ivbzf-HTEXW1V83epDQX-9" value="The cabinets hold the usual assortment of dishes and tools. There&#39;s a few cans of food, old labels and dusty. Inside one cabinet is a scrawled note, the marker almost invisible againt the dark wood.&amp;nbsp;&lt;br&gt;&quot;Don&#39;t trust it...&quot;" style="whiteSpace=wrap;html=1;rounded=1;" vertex="1" parent="1">
          <mxGeometry x="1620" y="145" width="170" height="150" as="geometry" />
        </mxCell>
        <mxCell id="ivbzf-HTEXW1V83epDQX-11" value="hallway()" style="whiteSpace=wrap;html=1;rounded=1;" vertex="1" parent="1">
          <mxGeometry x="1317.5" y="400" width="120" height="60" as="geometry" />
        </mxCell>
        <mxCell id="ivbzf-HTEXW1V83epDQX-13" value="The decorative odds and ends don&#39;t clutter the room, and the shelves seem to have different themes. The actual shelves double as art, in interesting geometric patterns. One shelf hold a variety of crystals and stones. Another holds dried flowers. One interesting little cabinet with a door has different bottles in weird shapes, with colorful liquids inside." style="whiteSpace=wrap;html=1;rounded=1;" vertex="1" parent="1">
          <mxGeometry x="1750" y="500" width="210" height="150" as="geometry" />
        </mxCell>
        <mxCell id="ivbzf-HTEXW1V83epDQX-22" value="yes" style="edgeStyle=orthogonalEdgeStyle;rounded=0;orthogonalLoop=1;jettySize=auto;html=1;entryX=1;entryY=0.5;entryDx=0;entryDy=0;" edge="1" parent="1" source="ivbzf-HTEXW1V83epDQX-17" target="ivbzf-HTEXW1V83epDQX-21">
          <mxGeometry relative="1" as="geometry" />
        </mxCell>
        <mxCell id="ivbzf-HTEXW1V83epDQX-17" value="Key:redDoor?" style="rhombus;whiteSpace=wrap;html=1;fillColor=#f8cecc;strokeColor=#b85450;" vertex="1" parent="1">
          <mxGeometry x="-260" y="385" width="90" height="80" as="geometry" />
        </mxCell>
        <mxCell id="ivbzf-HTEXW1V83epDQX-26" value="go into the room" style="edgeStyle=orthogonalEdgeStyle;rounded=0;orthogonalLoop=1;jettySize=auto;html=1;" edge="1" parent="1" source="ivbzf-HTEXW1V83epDQX-21" target="ivbzf-HTEXW1V83epDQX-25">
          <mxGeometry relative="1" as="geometry" />
        </mxCell>
        <mxCell id="ivbzf-HTEXW1V83epDQX-21" value="The shed is dark. The door behind you lets in a little light, but the only other light is a small line of light outlining a small window on the other side of the building.. You struggle to see through the gloom." style="rounded=1;whiteSpace=wrap;html=1;" vertex="1" parent="1">
          <mxGeometry x="-560" y="210" width="180" height="110" as="geometry" />
        </mxCell>
        <mxCell id="ivbzf-HTEXW1V83epDQX-24" value="no" style="edgeStyle=orthogonalEdgeStyle;rounded=0;orthogonalLoop=1;jettySize=auto;html=1;entryX=0;entryY=0.5;entryDx=0;entryDy=0;" edge="1" parent="1" source="ivbzf-HTEXW1V83epDQX-23" target="ivbzf-HTEXW1V83epDQX-17">
          <mxGeometry relative="1" as="geometry" />
        </mxCell>
        <mxCell id="ivbzf-HTEXW1V83epDQX-23" value="The door is locked" style="rounded=1;whiteSpace=wrap;html=1;" vertex="1" parent="1">
          <mxGeometry x="-490" y="480" width="110" height="50" as="geometry" />
        </mxCell>
        <mxCell id="ivbzf-HTEXW1V83epDQX-28" value="no" style="edgeStyle=orthogonalEdgeStyle;rounded=0;orthogonalLoop=1;jettySize=auto;html=1;entryX=1;entryY=0.5;entryDx=0;entryDy=0;" edge="1" parent="1" source="ivbzf-HTEXW1V83epDQX-25" target="ivbzf-HTEXW1V83epDQX-27">
          <mxGeometry relative="1" as="geometry">
            <mxPoint x="-780" y="320" as="targetPoint" />
          </mxGeometry>
        </mxCell>
        <mxCell id="ivbzf-HTEXW1V83epDQX-30" value="yes" style="edgeStyle=orthogonalEdgeStyle;rounded=0;orthogonalLoop=1;jettySize=auto;html=1;entryX=1;entryY=0.5;entryDx=0;entryDy=0;" edge="1" parent="1" source="ivbzf-HTEXW1V83epDQX-25" target="ivbzf-HTEXW1V83epDQX-29">
          <mxGeometry relative="1" as="geometry" />
        </mxCell>
        <mxCell id="ivbzf-HTEXW1V83epDQX-25" value="Lantern?" style="rhombus;whiteSpace=wrap;html=1;rounded=1;fillColor=#f8cecc;strokeColor=#b85450;" vertex="1" parent="1">
          <mxGeometry x="-770" y="235" width="80" height="80" as="geometry" />
        </mxCell>
        <mxCell id="ivbzf-HTEXW1V83epDQX-27" value="You go in a few steps and can&#39;t see any better. You retreat to the door. If only there was light..." style="rounded=1;whiteSpace=wrap;html=1;" vertex="1" parent="1">
          <mxGeometry x="-990" y="350" width="120" height="80" as="geometry" />
        </mxCell>
        <mxCell id="ivbzf-HTEXW1V83epDQX-33" value="open the shade" style="edgeStyle=orthogonalEdgeStyle;rounded=0;orthogonalLoop=1;jettySize=auto;html=1;" edge="1" parent="1" source="ivbzf-HTEXW1V83epDQX-29" target="ivbzf-HTEXW1V83epDQX-32">
          <mxGeometry relative="1" as="geometry" />
        </mxCell>
        <mxCell id="ivbzf-HTEXW1V83epDQX-29" value="You turn on the lantern. The shed is clearly an art workshop. There are a couple of windows you can see, but they&#39;ve all been boarded up except for two. One at the back has a window air conditioner, though it&#39;s off for now. The other window not boarded up has a fabric windowshade pulled down over it. Art supplies litter the shed. A pegboard with various tools takes up one long wall, and a sturdy table sits along the back wall. You didn&#39;t realize your uncle did wordworking, but the wood shavings on the floor tell another story. Some paint brushes and easels lay in palces." style="whiteSpace=wrap;html=1;rounded=1;" vertex="1" parent="1">
          <mxGeometry x="-1150" y="50" width="280" height="190" as="geometry" />
        </mxCell>
        <mxCell id="ivbzf-HTEXW1V83epDQX-32" value="Light trickles in as you open the shade. It&#39;s on the wall facing away from the driveway and you can see mostly just trees, with a little bit of the back yard. But you also see a path into the trees that hadn&#39;t been visible...&lt;br&gt;&lt;br&gt;[treehouse = True]" style="whiteSpace=wrap;html=1;rounded=1;fillColor=#dae8fc;strokeColor=#6c8ebf;" vertex="1" parent="1">
          <mxGeometry x="-1470" y="50" width="160" height="150" as="geometry" />
        </mxCell>
        <mxCell id="ivbzf-HTEXW1V83epDQX-37" value="" style="edgeStyle=orthogonalEdgeStyle;rounded=0;orthogonalLoop=1;jettySize=auto;html=1;" edge="1" parent="1" source="ivbzf-HTEXW1V83epDQX-34" target="ivbzf-HTEXW1V83epDQX-36">
          <mxGeometry relative="1" as="geometry" />
        </mxCell>
        <mxCell id="ivbzf-HTEXW1V83epDQX-34" value="treehouse = True" style="rhombus;whiteSpace=wrap;html=1;rounded=1;fillColor=#dae8fc;strokeColor=#6c8ebf;" vertex="1" parent="1">
          <mxGeometry x="-40" y="215" width="80" height="80" as="geometry" />
        </mxCell>
        <mxCell id="ivbzf-HTEXW1V83epDQX-43" value="go down path" style="edgeStyle=orthogonalEdgeStyle;rounded=0;orthogonalLoop=1;jettySize=auto;html=1;" edge="1" parent="1" source="ivbzf-HTEXW1V83epDQX-36" target="ivbzf-HTEXW1V83epDQX-42">
          <mxGeometry relative="1" as="geometry" />
        </mxCell>
        <mxCell id="ivbzf-HTEXW1V83epDQX-36" value="[append to shedDoor()]&lt;br&gt;Looking to the side, you can see where the path is hidden behind an overgrown bush." style="whiteSpace=wrap;html=1;rounded=1;" vertex="1" parent="1">
          <mxGeometry x="-80" y="40" width="160" height="85" as="geometry" />
        </mxCell>
        <mxCell id="ivbzf-HTEXW1V83epDQX-41" value="" style="edgeStyle=orthogonalEdgeStyle;rounded=0;orthogonalLoop=1;jettySize=auto;html=1;" edge="1" parent="1" source="ivbzf-HTEXW1V83epDQX-38" target="ivbzf-HTEXW1V83epDQX-40">
          <mxGeometry relative="1" as="geometry" />
        </mxCell>
        <mxCell id="ivbzf-HTEXW1V83epDQX-38" value="treehouse = True" style="rhombus;whiteSpace=wrap;html=1;rounded=1;fillColor=#dae8fc;strokeColor=#6c8ebf;" vertex="1" parent="1">
          <mxGeometry x="460" y="-335" width="80" height="80" as="geometry" />
        </mxCell>
        <mxCell id="ivbzf-HTEXW1V83epDQX-40" value="[append to patio()]&lt;br&gt;Now that you know what to look for, you can see the hint of the path out behind the shed.." style="whiteSpace=wrap;html=1;rounded=1;" vertex="1" parent="1">
          <mxGeometry x="280" y="-350" width="120" height="85" as="geometry" />
        </mxCell>
        <mxCell id="ivbzf-HTEXW1V83epDQX-45" value="climb the ladder" style="edgeStyle=orthogonalEdgeStyle;rounded=0;orthogonalLoop=1;jettySize=auto;html=1;" edge="1" parent="1" source="ivbzf-HTEXW1V83epDQX-42" target="ivbzf-HTEXW1V83epDQX-44">
          <mxGeometry relative="1" as="geometry" />
        </mxCell>
        <mxCell id="ivbzf-HTEXW1V83epDQX-42" value="The path goes just a dozen feet into the trees, before ending at the trunk of one large tree. There are wooden slats nailed to the trunk. Looking up, you realize there&#39;s a treehouse tucked into the branches." style="whiteSpace=wrap;html=1;rounded=1;" vertex="1" parent="1">
          <mxGeometry x="-390" y="10" width="160" height="120" as="geometry" />
        </mxCell>
        <mxCell id="ivbzf-HTEXW1V83epDQX-47" value="look out the windows" style="edgeStyle=orthogonalEdgeStyle;rounded=0;orthogonalLoop=1;jettySize=auto;html=1;" edge="1" parent="1" source="ivbzf-HTEXW1V83epDQX-44" target="ivbzf-HTEXW1V83epDQX-46">
          <mxGeometry relative="1" as="geometry" />
        </mxCell>
        <mxCell id="ivbzf-HTEXW1V83epDQX-51" value="move the tarp" style="edgeStyle=orthogonalEdgeStyle;rounded=0;orthogonalLoop=1;jettySize=auto;html=1;" edge="1" parent="1" source="ivbzf-HTEXW1V83epDQX-44" target="ivbzf-HTEXW1V83epDQX-50">
          <mxGeometry relative="1" as="geometry" />
        </mxCell>
        <mxCell id="ivbzf-HTEXW1V83epDQX-44" value="The treehouse is small, but nice. There&#39;s a lump in the corner under a tarp which is weighed down with stones. There are a couple of windows looking out." style="whiteSpace=wrap;html=1;rounded=1;" vertex="1" parent="1">
          <mxGeometry x="-370" y="-200" width="150" height="100" as="geometry" />
        </mxCell>
        <mxCell id="ivbzf-HTEXW1V83epDQX-46" value="Out the window, you can just make out the patio behind the house as well as the roof. Looking down, you can make out a faint line of bare dirt completely circling the treehouse. Curious..." style="whiteSpace=wrap;html=1;rounded=1;" vertex="1" parent="1">
          <mxGeometry x="-367.5" y="-440" width="145" height="120" as="geometry" />
        </mxCell>
        <mxCell id="ivbzf-HTEXW1V83epDQX-53" value="look in the locker" style="edgeStyle=orthogonalEdgeStyle;rounded=0;orthogonalLoop=1;jettySize=auto;html=1;" edge="1" parent="1" source="ivbzf-HTEXW1V83epDQX-50" target="ivbzf-HTEXW1V83epDQX-52">
          <mxGeometry relative="1" as="geometry" />
        </mxCell>
        <mxCell id="ivbzf-HTEXW1V83epDQX-50" value="You move the stones and the tarp. Underneath is an old footlocker. There is no lock on it, but it looks well-used." style="whiteSpace=wrap;html=1;rounded=1;" vertex="1" parent="1">
          <mxGeometry x="-660" y="-190" width="140" height="80" as="geometry" />
        </mxCell>
        <mxCell id="ivbzf-HTEXW1V83epDQX-52" value="You open the locker. Inside, there&#39;s a letter with your name on it. Beneath that is an odd collection of things. Books on fairy lore, closed boxes,&amp;nbsp;" style="whiteSpace=wrap;html=1;rounded=1;" vertex="1" parent="1">
          <mxGeometry x="-910" y="-180" width="120" height="60" as="geometry" />
        </mxCell>
      </root>
    </mxGraphModel>
  </diagram>
</mxfile>
